:FULLY-SPECIFIED
:FORCE-ALL-JOINTS-BE-3DOF
:DEGREES
453
root 10.7877 17.4541 27.6639 5.29492 0.747971 2.22301
lfemur -18.409 3.74513 -28.3649
ltibia 25.7663 0 0
lfoot -12.7974 4.84369 0
ltoes 0.0471996 0 0
rfemur -19.735 -1.94381 16.9752
rtibia 64.1383 0 0
rfoot -9.22462 -8.0591 0
rtoes -18.9096 0 0
lowerback -5.50474 -1.1841 -2.8564
upperback -1.48315 -1.44339 1.354
thorax 1.66904 -0.729747 2.89405
lowerneck -21.0602 -4.03073 -11.8052
upperneck 24.3038 -4.74307 10.6687
head 12.0428 -1.87457 5.25691
lclavicle -4.20314e-14 3.25813e-15 0
lhumerus -25.7158 -12.193 89.7983
lradius 21.0204 0 0
lwrist -4.31247 0 0
lhand -11.2039 -23.4392 0
lfingers 7.12502 0 0
lthumb 14.8241 6.0098 0
rclavicle -4.20314e-14 3.25813e-15 0
rhumerus -45.3613 10.5901 -88.2369
rradius 34.3688 0 0
rwrist -12.8005 0 0
rhand -30.3738 -31.5379 0
rfingers 7.12502 0 0
rthumb -3.67845 -61.4859 0
454
root 10.7873 17.4459 27.7925 5.28166 0.852936 2.30183
lfemur -17.5511 3.689 -28.3901
ltibia 25.1222 0 0
lfoot -12.8784 4.83593 0
ltoes 0.1148 0 0
rfemur -20.3141 -1.54407 16.7112
rtibia 63.2148 0 0
rfoot -9.73164 -8.07047 0
rtoes -18.4106 0 0
lowerback -5.51382 -1.28518 -2.92844
upperback -1.44633 -1.57261 1.34648
thorax 1.72844 -0.796694 2.91261
lowerneck -21.0973 -3.98931 -11.757
upperneck 24.3306 -4.70281 10.6807
head 12.0543 -1.84977 5.26171
lclavicle -4.0324e-14 3.73328e-15 0
lhumerus -25.4053 -12.4965 89.6976
lradius 21.3757 0 0
lwrist -4.04363 0 0
lhand -11.2891 -23.5102 0
lfingers 7.12502 0 0
lthumb 14.7419 5.94412 0
rclavicle -4.0324e-14 3.73328e-15 0
rhumerus -45.4919 10.5146 -88.1727
rradius 34.4102 0 0
rwrist -12.9482 0 0
rhand -30.3391 -31.329 0
rfingers 7.12502 0 0
rthumb -3.64493 -61.2775 0
455
root 10.7868 17.4376 27.921 5.26841 0.957902 2.38066
lfemur -16.6932 3.63288 -28.4152
ltibia 24.478 0 0
lfoot -12.9595 4.82816 0
ltoes 0.1824 0 0
rfemur -20.8932 -1.14434 16.4471
rtibia 62.2913 0 0
rfoot -10.2387 -8.08183 0
rtoes -17.9116 0 0
lowerback -5.52291 -1.38625 -3.00047
upperback -1.40951 -1.70184 1.33897
thorax 1.78785 -0.863642 2.93117
lowerneck -21.1345 -3.94788 -11.7089
upperneck 24.3573 -4.66255 10.6926
head 12.0658 -1.82497 5.26652
lclavicle -3.86166e-14 4.20842e-15 0
lhumerus -25.0947 -12.8001 89.5968
lradius 21.731 0 0
lwrist -3.7748 0 0
lhand -11.3744 -23.5813 0
lfingers 7.12502 0 0
lthumb 14.6597 5.87844 0
rclavicle -3.86166e-14 4.20842e-15 0
rhumerus -45.6226 10.4392 -88.1086
rradius 34.4516 0 0
rwrist -13.0959 0 0
rhand -30.3044 -31.1202 0
rfingers 7.12502 0 0
rthumb -3.61141 -61.0691 0
456
root 10.7863 17.4294 28.0496 5.25515 1.06287 2.45948
lfemur -15.8353 3.57676 -28.4403
ltibia 23.8339 0 0
lfoot -13.0405 4.82039 0
ltoes 0.25 0 0
rfemur -21.4723 -0.744609 16.1831
rtibia 61.3678 0 0
rfoot -10.7457 -8.0932 0
rtoes -17.4126 0 0
lowerback -5.53199 -1.48733 -3.07251
upperback -1.37269 -1.83106 1.33145
thorax 1.84725 -0.930589 2.94973
lowerneck -21.1716 -3.90646 -11.6608
upperneck 24.3841 -4.62229 10.7046
head 12.0773 -1.80017 5.27133
lclavicle -3.69092e-14 4.68357e-15 0
lhumerus -24.7841 -13.1037 89.4961
lradius 22.0863 0 0
lwrist -3.50596 0 0
lhand -11.4597 -23.6523 0
lfingers 7.12502 0 0
lthumb 14.5775 5.81276 0
rclavicle -3.69092e-14 4.68357e-15 0
rhumerus -45.7532 10.3638 -88.0444
rradius 34.493 0 0
rwrist -13.2436 0 0
rhand -30.2697 -30.9113 0
rfingers 7.12502 0 0
rthumb -3.57789 -60.8607 0
457
root 10.7859 17.4212 28.1782 5.2419 1.16783 2.53831
lfemur -14.9774 3.52063 -28.4655
ltibia 23.1897 0 0
lfoot -13.1216 4.81263 0
ltoes 0.3176 0 0
rfemur -22.0514 -0.344877 15.919
rtibia 60.4443 0 0
rfoot -11.2527 -8.10456 0
rtoes -16.9136 0 0
lowerback -5.54108 -1.5884 -3.14455
upperback -1.33587 -1.96029 1.32393
thorax 1.90665 -0.997537 2.96829
lowerneck -21.2088 -3.86503 -11.6127
upperneck 24.4109 -4.58203 10.7166
head 12.0888 -1.77537 5.27614
lclavicle -3.52018e-14 5.15871e-15 0
lhumerus -24.4736 -13.4073 89.3953
lradius 22.4416 0 0
lwrist -3.23713 0 0
lhand -11.5449 -23.7233 0
lfingers 7.12502 0 0
lthumb 14.4954 5.74707 0
rclavicle -3.52018e-14 5.15871e-15 0
rhumerus -45.8838 10.2883 -87.9803
rradius 34.5344 0 0
rwrist -13.3914 0 0
rhand -30.235 -30.7024 0
rfingers 7.12502 0 0
rthumb -3.54438 -60.6523 0
458
root 10.7854 17.413 28.3068 5.22864 1.2728 2.61713
lfemur -14.1195 3.46451 -28.4906
ltibia 22.5455 0 0
lfoot -13.2027 4.80486 0
ltoes 0.3852 0 0
rfemur -22.6305 0.0548561 15.655
rtibia 59.5208 0 0
rfoot -11.7597 -8.11592 0
rtoes -16.4146 0 0
lowerback -5.55016 -1.68948 -3.21659
upperback -1.29905 -2.08951 1.31641
thorax 1.96605 -1.06448 2.98685
lowerneck -21.2459 -3.8236 -11.5645
upperneck 24.4377 -4.54177 10.7286
head 12.1004 -1.75057 5.28094
lclavicle -3.34944e-14 5.63385e-15 0
lhumerus -24.163 -13.7108 89.2945
lradius 22.7969 0 0
lwrist -2.9683 0 0
lhand -11.6302 -23.7943 0
lfingers 7.12502 0 0
lthumb 14.4132 5.68139 0
rclavicle -3.34944e-14 5.63385e-15 0
rhumerus -46.0144 10.2129 -87.9161
rradius 34.5758 0 0
rwrist -13.5391 0 0
rhand -30.2003 -30.4935 0
rfingers 7.12502 0 0
rthumb -3.51086 -60.4439 0
459
root 10.785 17.4047 28.4354 5.21539 1.37776 2.69596
lfemur -13.2616 3.40839 -28.5158
ltibia 21.9014 0 0
lfoot -13.2837 4.7971 0
ltoes 0.4528 0 0
rfemur -23.2096 0.454589 15.3909
rtibia 58.5973 0 0
rfoot -12.2667 -8.12729 0
rtoes -15.9156 0 0
lowerback -5.55925 -1.79055 -3.28863
upperback -1.26223 -2.21874 1.30889
thorax 2.02545 -1.13143 3.00542
lowerneck -21.2831 -3.78218 -11.5164
upperneck 24.4644 -4.50152 10.7405
head 12.1119 -1.72578 5.28575
lclavicle -3.1787e-14 6.109e-15 0
lhumerus -23.8525 -14.0144 89.1938
lradius 23.1523 0 0
lwrist -2.69946 0 0
lhand -11.7154 -23.8653 0
lfingers 7.12502 0 0
lthumb 14.331 5.61571 0
rclavicle -3.1787e-14 6.109e-15 0
rhumerus -46.1451 10.1375 -87.852
rradius 34.6172 0 0
rwrist -13.6868 0 0
rhand -30.1655 -30.2847 0
rfingers 7.12502 0 0
rthumb -3.47734 -60.2355 0
460
root 10.7845 17.3965 28.564 5.20213 1.48273 2.77478
lfemur -12.4037 3.35226 -28.5409
ltibia 21.2572 0 0
lfoot -13.3648 4.78933 0
ltoes 0.5204 0 0
rfemur -23.7887 0.854321 15.1269
rtibia 57.6738 0 0
rfoot -12.7737 -8.13865 0
rtoes -15.4166 0 0
lowerback -5.56833 -1.89163 -3.36066
upperback -1.22541 -2.34796 1.30138
thorax 2.08485 -1.19838 3.02398
lowerneck -21.3202 -3.74075 -11.4683
upperneck 24.4912 -4.46126 10.7525
head 12.1234 -1.70098 5.29056
lclavicle -3.00796e-14 6.58414e-15 0
lhumerus -23.5419 -14.318 89.093
lradius 23.5076 0 0
lwrist -2.43063 0 0
lhand -11.8007 -23.9363 0
lfingers 7.12502 0 0
lthumb 14.2488 5.55003 0
rclavicle -3.00796e-14 6.58414e-15 0
rhumerus -46.2757 10.062 -87.7878
rradius 34.6586 0 0
rwrist -13.8345 0 0
rhand -30.1308 -30.0758 0
rfingers 7.12502 0 0
rthumb -3.44382 -60.0271 0
461
root 10.784 17.3883 28.6925 5.18888 1.58769 2.85361
lfemur -11.5458 3.29614 -28.566
ltibia 20.6131 0 0
lfoot -13.4458 4.78156 0
ltoes 0.588 0 0
rfemur -24.3678 1.25405 14.8628
rtibia 56.7503 0 0
rfoot -13.2807 -8.15002 0
rtoes -14.9176 0 0
lowerback -5.57742 -1.9927 -3.4327
upperback -1.18859 -2.47719 1.29386
thorax 2.14426 -1.26533 3.04254
lowerneck -21.3574 -3.69933 -11.4202
upperneck 24.518 -4.421 10.7645
head 12.1349 -1.67618 5.29537
lclavicle -2.83722e-14 7.05929e-15 0
lhumerus -23.2313 -14.6216 88.9923
lradius 23.8629 0 0
lwrist -2.16179 0 0
lhand -11.886 -24.0074 0
lfingers 7.12502 0 0
lthumb 14.1666 5.48435 0
rclavicle -2.83722e-14 7.05929e-15 0
rhumerus -46.4063 9.98659 -87.7237
rradius 34.7 0 0
rwrist -13.9822 0 0
rhand -30.0961 -29.8669 0
rfingers 7.12502 0 0
rthumb -3.4103 -59.8187 0
462
root 10.7836 17.3801 28.8211 5.17562 1.69266 2.93243
lfemur -10.6879 3.24002 -28.5912
ltibia 19.9689 0 0
lfoot -13.5269 4.7738 0
ltoes 0.6556 0 0
rfemur -24.9469 1.65379 14.5988
rtibia 55.8268 0 0
rfoot -13.7878 -8.16138 0
rtoes -14.4186 0 0
lowerback -5.58651 -2.09377 -3.50474
upperback -1.15177 -2.60642 1.28634
thorax 2.20366 -1.33227 3.0611
lowerneck -21.3946 -3.6579 -11.372
upperneck 24.5448 -4.38074 10.7765
head 12.1464 -1.65138 5.30017
lclavicle -2.66648e-14 7.53443e-15 0
lhumerus -22.9208 -14.9251 88.8915
lradius 24.2182 0 0
lwrist -1.89296 0 0
lhand -11.9712 -24.0784 0
lfingers 7.12502 0 0
lthumb 14.0844 5.41867 0
rclavicle -2.66648e-14 7.53443e-15 0
rhumerus -46.5369 9.91116 -87.6596
rradius 34.7414 0 0
rwrist -14.1299 0 0
rhand -30.0614 -29.658 0
rfingers 7.12502 0 0
rthumb -3.37678 -59.6103 0
